<?xml version="1.0" encoding="UTF-8"?>
<svg id="Layer_2" data-name="Layer 2" xmlns="http://www.w3.org/2000/svg" viewBox="0 0 810.91 1080.42">
  <defs>
    <style>
      .cls-1 {
        stroke-width: 10px;
      }

      .cls-1, .cls-2 {
        fill: none;
      }

      .cls-1, .cls-2, .cls-3 {
        stroke: #000;
        stroke-miterlimit: 10;
      }

      .cls-2 {
        stroke-width: 13px;
      }
    </style>
  </defs>
  <g id="Layer_2-2" data-name="Layer 2">
    <circle class="cls-2" cx="406.97" cy="316.15" r="293.65"/>
    <g>
      <circle class="cls-3" cx="414.81" cy="26.5" r="26"/>
      <circle class="cls-3" cx="201.06" cy="110.99" r="29.34"/>
      <circle class="cls-3" cx="113.88" cy="304.03" r="32.32"/>
      <circle class="cls-3" cx="247.34" cy="448.89" r="32.32"/>
      <circle class="cls-3" cx="544.55" cy="202.32" r="32.32"/>
      <circle class="cls-3" cx="313.99" cy="156.22" r="28.09"/>
      <circle class="cls-3" cx="452.14" cy="304.03" r="28.09"/>
      <circle class="cls-3" cx="701.24" cy="304.79" r="28.09"/>
      <circle class="cls-3" cx="384.77" cy="607.8" r="27.04"/>
      <circle class="cls-3" cx="604.44" cy="544.3" r="24.57"/>
      <circle class="cls-3" cx="609.07" cy="422.32" r="27.2"/>
      <circle class="cls-3" cx="615.25" cy="113.81" r="24.02"/>
      <circle class="cls-3" cx="248.34" cy="255.68" r="24.02"/>
      <circle class="cls-3" cx="430.67" cy="501.42" r="20.12"/>
      <circle class="cls-3" cx="197.03" cy="518.42" r="19"/>
    </g>
    <g>
      <line class="cls-1" x1="200.6" y1="113.81" x2="247.34" y2="255.21"/>
      <line class="cls-1" x1="113.88" y1="304.79" x2="248.34" y2="255.68"/>
      <line class="cls-1" x1="247.35" y1="255.68" x2="247.33" y2="449.9"/>
      <line class="cls-1" x1="113.32" y1="304.03" x2="244.89" y2="449.9"/>
      <line class="cls-1" x1="247.34" y1="448.89" x2="450.79" y2="304.03"/>
      <line class="cls-1" x1="244.89" y1="449.9" x2="197.03" y2="519.72"/>
      <line class="cls-1" x1="316.05" y1="146.41" x2="200.6" y2="113.81"/>
      <line class="cls-1" x1="247.34" y1="255.21" x2="310.81" y2="149.83"/>
      <line class="cls-1" x1="414.81" y1="26.5" x2="310.81" y2="149.83"/>
      <line class="cls-1" x1="457.19" y1="304.03" x2="313.99" y2="156.22"/>
      <line class="cls-1" x1="549.8" y1="199.24" x2="420.71" y2="22.5"/>
      <line class="cls-1" x1="615.25" y1="114.41" x2="544.55" y2="199.24"/>
      <line class="cls-1" x1="701.24" y1="304.79" x2="544.55" y2="202.32"/>
      <line class="cls-1" x1="609.07" y1="422.32" x2="701.24" y2="304.79"/>
      <line class="cls-1" x1="549.8" y1="199.24" x2="609.07" y2="422.32"/>
      <line class="cls-1" x1="450.79" y1="304.03" x2="609.07" y2="422.32"/>
      <line class="cls-1" x1="609.07" y1="544.3" x2="609.07" y2="422.32"/>
      <line class="cls-1" x1="430.67" y1="501.42" x2="609.07" y2="422.32"/>
      <line class="cls-1" x1="452.14" y1="304.79" x2="430.67" y2="501.42"/>
      <line class="cls-1" x1="244.89" y1="449.9" x2="430.67" y2="501.42"/>
      <line class="cls-1" x1="384.77" y1="607.8" x2="247.33" y2="449.9"/>
      <line class="cls-1" x1="430.67" y1="501.42" x2="384.77" y2="607.8"/>
      <line class="cls-1" x1="604.44" y1="550.87" x2="430.67" y2="501.42"/>
      <line class="cls-1" x1="315.55" y1="153.02" x2="544.55" y2="202.32"/>
      <line class="cls-1" x1="450.79" y1="304.03" x2="544.55" y2="202.32"/>
      <line class="cls-1" x1="247.33" y1="259.26" x2="450.79" y2="304.03"/>
    </g>
  </g>
  <g id="Layer_3_copy" data-name="Layer 3 copy">
    <g>
      <path d="M113.13,854.36c0,33.92,2.88,34.88,17.92,36.8l7.04.96c2.24,2.24,1.92,8-.64,9.28-14.08-.64-28.48-.96-42.56-.96s-29.12.32-43.2.96c-2.56-1.28-2.88-7.04-.64-9.28l7.04-.96c15.04-1.92,17.92-2.88,17.92-36.8v-119.04c0-33.92-2.88-34.88-17.92-36.8l-7.04-.96c-2.24-2.24-1.92-8,.64-9.28,14.08.64,28.48.96,43.2.96s28.48-.32,42.56-.96c2.56,1.28,2.88,7.04.64,9.28l-7.04.96c-15.04,1.92-17.92,2.88-17.92,36.8v119.04Z"/>
      <path d="M367.53,743c-2.24,2.56-8,2.88-10.24.64-5.44-20.16-19.84-46.72-62.08-46.72s-81.6,28.8-81.6,94.4,42.56,101.44,83.84,101.44,57.92-26.88,66.88-47.68c2.88-2.88,8-1.6,9.6,1.28-2.24,21.44-10.88,42.56-15.36,48.64-3.84.64-7.68,1.92-11.2,2.88-7.04,2.24-29.12,7.68-49.92,7.68-31.68,0-58.88-6.4-81.92-21.44-25.92-16.96-45.44-46.08-45.44-88,0-37.44,16.64-66.56,40.32-84.8,23.68-17.92,56-27.2,88.32-27.2,18.24,0,40.32,3.2,55.36,7.04l8.96,1.92c.64,7.36,1.28,26.24,4.48,49.92Z"/>
      <path d="M405.6,892.12c-5.76-6.72-9.92-28.8-9.6-48.64,1.92-3.2,7.36-3.52,9.92-1.28,5.76,16.32,23.04,50.56,54.4,50.56,24.32,0,38.08-14.72,38.08-34.24,0-18.24-8.64-32.96-32.64-46.4l-13.76-7.68c-24-13.44-45.12-32.96-45.12-61.76,0-31.68,23.68-58.56,70.4-58.56,16.64,0,28.8,3.84,43.84,6.72,3.52,7.04,6.72,28.16,6.72,43.2-1.6,2.88-7.36,3.2-10.24.96-4.8-16.64-16-38.08-43.2-38.08-25.6,0-36.16,16.64-36.16,33.6,0,13.44,9.28,27.84,30.4,39.04l19.84,10.56c20.8,10.88,43.84,30.72,43.84,63.04,0,36.48-27.84,62.4-74.24,62.4-29.44,0-46.08-9.6-52.48-13.44Z"/>
      <path d="M761.77,743c-2.24,2.56-8,2.88-10.24.64-5.44-20.16-19.84-46.72-62.08-46.72s-81.6,28.8-81.6,94.4,42.56,101.44,83.84,101.44,57.92-26.88,66.88-47.68c2.88-2.88,8-1.6,9.6,1.28-2.24,21.44-10.88,42.56-15.36,48.64-3.84.64-7.68,1.92-11.2,2.88-7.04,2.24-29.12,7.68-49.92,7.68-31.68,0-58.88-6.4-81.92-21.44-25.92-16.96-45.44-46.08-45.44-88,0-37.44,16.64-66.56,40.32-84.8,23.68-17.92,56-27.2,88.32-27.2,18.24,0,40.32,3.2,55.36,7.04l8.96,1.92c.64,7.36,1.28,26.24,4.48,49.92Z"/>
    </g>
    <g>
      <g>
        <path d="M5.15,1012.9c0,.31-.06.43-.37.43H.43c-.31,0-.43-.12-.43-.43v-40.11c0-.31.12-.43.37-.43h4.4c.25,0,.37.12.37.37v40.17Z"/>
        <path d="M16.86,1013.33c-.25,0-.43-.06-.43-.43v-40.17c0-.25.06-.37.37-.37h6.14c.31,0,.37.12.56.37,5.39,9.11,17.3,29.26,19.78,34.1h.06c-.12-1.67-.19-4.03-.19-9.42v-24.61c0-.31.12-.43.43-.43h4.09c.31,0,.43.19.43.5v40.05c0,.31-.12.43-.56.43h-5.52c-.37,0-.56-.06-.68-.37-2.79-5.21-18.23-30.81-20.21-35.4h-.06c.12,2.42.25,5.46.25,10.91v24.43c0,.31-.12.43-.37.43h-4.09Z"/>
        <path d="M67.58,977.06h-13.27c-.25,0-.37-.12-.31-.43l.62-3.91c.06-.25.19-.37.5-.37h30.32c.31,0,.43.12.5.43l.43,3.84c.06.31-.06.43-.31.43h-13.27v35.77c0,.37-.12.5-.43.5h-4.28c-.31,0-.5-.12-.5-.43v-35.83Z"/>
        <path d="M116.74,1012.96c-.06.31-.19.37-.43.37h-23.56c-.43,0-.5-.12-.5-.5v-40.05c0-.31.12-.43.43-.43h22.63c.31,0,.37.06.43.37l.5,3.91c.06.25,0,.43-.31.43h-18.54v12.96h16.74c.25,0,.37.12.37.37v3.97c0,.31-.19.37-.37.37h-16.74v13.89h19.71c.31,0,.37.12.31.37l-.68,3.97Z"/>
        <path d="M125.24,1013.33c-.25,0-.37-.06-.37-.37v-40.05c0-.31.06-.5.37-.5,3.47-.12,6.63-.19,10.79-.19,9.11,0,15.19,3.91,15.19,11.84,0,5.83-3.97,9.42-8.56,10.97,2.11,2.91,10.42,15.13,12.03,17.79.12.25.12.5-.19.5h-5.21c-.37,0-.5-.06-.68-.25-1.92-2.91-7.07-10.85-10.17-15.62-.5-.74-.81-.99-1.43-.99h-7.07v16.49c0,.25-.12.37-.37.37h-4.34ZM136.58,991.94c5.89,0,9.49-3.04,9.49-7.63s-3.6-7.5-10.23-7.5c-2.36,0-4.65.06-5.89.12v15h6.63Z"/>
        <path d="M161.32,1013.33c-.25,0-.43-.06-.43-.43v-40.17c0-.25.06-.37.37-.37h6.14c.31,0,.37.12.56.37,5.39,9.11,17.3,29.26,19.78,34.1h.06c-.12-1.67-.19-4.03-.19-9.42v-24.61c0-.31.12-.43.43-.43h4.09c.31,0,.43.19.43.5v40.05c0,.31-.12.43-.56.43h-5.52c-.37,0-.56-.06-.68-.37-2.79-5.21-18.23-30.81-20.21-35.4h-.06c.12,2.42.25,5.46.25,10.91v24.43c0,.31-.12.43-.37.43h-4.09Z"/>
        <path d="M208.63,1000.44l-4.46,12.52c-.06.25-.19.37-.5.37h-4.22c-.31,0-.43-.19-.37-.5l13.52-37.63c.19-.5.37-.93.43-2.54,0-.19.12-.31.31-.31h6.08c.25,0,.31.06.37.31l14.57,40.24c.12.25.06.43-.25.43h-4.71c-.25,0-.37-.12-.5-.31l-4.53-12.59h-15.75ZM222.95,995.66c-1.36-4.03-5.27-14.88-6.45-19.09h-.06c-1.05,3.97-4.03,12.28-6.39,19.09h12.9Z"/>
        <path d="M244.71,977.06h-13.27c-.25,0-.37-.12-.31-.43l.62-3.91c.06-.25.19-.37.5-.37h30.32c.31,0,.43.12.5.43l.43,3.84c.06.31-.06.43-.31.43h-13.27v35.77c0,.37-.12.5-.43.5h-4.28c-.31,0-.5-.12-.5-.43v-35.83Z"/>
        <path d="M274.53,1012.9c0,.31-.06.43-.37.43h-4.34c-.31,0-.43-.12-.43-.43v-40.11c0-.31.12-.43.37-.43h4.4c.25,0,.37.12.37.37v40.17Z"/>
        <path d="M320.41,992.62c.06,13.33-7.81,21.33-18.54,21.33-11.84,0-18.78-8.99-18.78-21.2s7.87-21.02,18.66-21.02c11.66,0,18.6,9.18,18.66,20.89ZM302,1009.3c8.25,0,13.14-6.7,13.08-16.55,0-9.61-5.27-16.37-13.39-16.37-7.44,0-13.33,5.77-13.33,16.37,0,8.99,4.71,16.55,13.64,16.55Z"/>
        <path d="M329.4,1013.33c-.25,0-.43-.06-.43-.43v-40.17c0-.25.06-.37.37-.37h6.14c.31,0,.37.12.56.37,5.39,9.11,17.3,29.26,19.78,34.1h.06c-.12-1.67-.19-4.03-.19-9.42v-24.61c0-.31.12-.43.43-.43h4.09c.31,0,.43.19.43.5v40.05c0,.31-.12.43-.56.43h-5.52c-.37,0-.56-.06-.68-.37-2.79-5.21-18.23-30.81-20.21-35.4h-.06c.12,2.42.25,5.46.25,10.91v24.43c0,.31-.12.43-.37.43h-4.09Z"/>
        <path d="M376.71,1000.44l-4.46,12.52c-.06.25-.19.37-.5.37h-4.22c-.31,0-.43-.19-.37-.5l13.52-37.63c.19-.5.37-.93.43-2.54,0-.19.12-.31.31-.31h6.08c.25,0,.31.06.37.31l14.57,40.24c.12.25.06.43-.25.43h-4.71c-.25,0-.37-.12-.5-.31l-4.53-12.59h-15.75ZM391.03,995.66c-1.36-4.03-5.27-14.88-6.45-19.09h-.06c-1.05,3.97-4.03,12.28-6.39,19.09h12.9Z"/>
        <path d="M409.5,1013.33c-.37,0-.5-.19-.5-.5v-40.05c0-.25.06-.43.37-.43h4.46c.25,0,.31.12.31.37v35.9h19.22c.31,0,.37.19.31.37l-.74,3.97c-.06.31-.25.37-.5.37h-22.94Z"/>
      </g>
      <g>
        <path d="M481.3,1012.77c0,.31-.06.56-.31.62-2.05.87-4.9,1.18-8.37,1.18-10.35,0-20.96-6.01-20.96-21.2,0-12.4,8.56-21.02,21.76-21.02,4.15,0,6.57.43,7.94,1.12.19.06.31.25.31.5v4.15c0,.37-.25.37-.43.31-1.74-.93-4.53-1.43-7.94-1.43-9.73,0-16.37,6.32-16.37,16.24,0,12.96,9.73,16.62,16.24,16.62,3.16,0,5.46-.25,7.75-1.12.25-.06.37-.06.37.25v3.78Z"/>
        <path d="M523.89,993.24c.06,13.33-7.81,21.33-18.54,21.33-11.84,0-18.79-8.99-18.79-21.2s7.87-21.02,18.66-21.02c11.66,0,18.6,9.18,18.66,20.89ZM505.48,1009.92c8.25,0,13.14-6.7,13.08-16.55,0-9.61-5.27-16.37-13.39-16.37-7.44,0-13.33,5.77-13.33,16.37,0,8.99,4.71,16.55,13.64,16.55Z"/>
        <path d="M532.88,1013.95c-.25,0-.43-.06-.43-.43v-40.17c0-.25.06-.37.37-.37h6.14c.31,0,.37.12.56.37,5.39,9.11,17.3,29.26,19.78,34.1h.06c-.12-1.67-.19-4.03-.19-9.42v-24.61c0-.31.12-.43.43-.43h4.09c.31,0,.43.19.43.5v40.05c0,.31-.12.43-.56.43h-5.52c-.37,0-.56-.06-.68-.37-2.79-5.21-18.23-30.81-20.21-35.4h-.06c.12,2.42.25,5.46.25,10.91v24.43c0,.31-.12.43-.37.43h-4.09Z"/>
        <path d="M580.5,1013.52c0,.31-.12.43-.37.43h-4.46c-.25,0-.31-.19-.31-.43v-40.17c0-.25.06-.37.37-.37h22.75c.25,0,.37.12.43.37l.43,3.91c.06.31-.06.43-.37.43h-18.48v13.7h16.49c.31,0,.43.12.43.37v3.97c0,.25-.19.37-.43.37h-16.49v17.42Z"/>
        <path d="M631.09,1013.58c-.06.31-.19.37-.43.37h-23.56c-.43,0-.5-.12-.5-.5v-40.05c0-.31.12-.43.43-.43h22.63c.31,0,.37.06.43.37l.5,3.91c.06.25,0,.43-.31.43h-18.54v12.96h16.74c.25,0,.37.12.37.37v3.97c0,.31-.19.37-.37.37h-16.74v13.89h19.71c.31,0,.37.12.31.37l-.68,3.97Z"/>
        <path d="M639.58,1013.95c-.25,0-.37-.06-.37-.37v-40.05c0-.31.06-.5.37-.5,3.47-.12,6.63-.19,10.79-.19,9.11,0,15.19,3.91,15.19,11.84,0,5.83-3.97,9.42-8.56,10.97,2.11,2.91,10.42,15.13,12.03,17.79.12.25.12.5-.19.5h-5.21c-.37,0-.5-.06-.68-.25-1.92-2.91-7.07-10.85-10.17-15.62-.5-.74-.81-.99-1.43-.99h-7.07v16.49c0,.25-.12.37-.37.37h-4.34ZM650.93,992.56c5.89,0,9.49-3.04,9.49-7.63s-3.6-7.5-10.23-7.5c-2.36,0-4.65.06-5.89.12v15h6.63Z"/>
        <path d="M699.72,1013.58c-.06.31-.19.37-.43.37h-23.56c-.43,0-.5-.12-.5-.5v-40.05c0-.31.12-.43.43-.43h22.63c.31,0,.37.06.43.37l.5,3.91c.06.25,0,.43-.31.43h-18.54v12.96h16.74c.25,0,.37.12.37.37v3.97c0,.31-.19.37-.37.37h-16.74v13.89h19.71c.31,0,.37.12.31.37l-.68,3.97Z"/>
        <path d="M708.28,1013.95c-.25,0-.43-.06-.43-.43v-40.17c0-.25.06-.37.37-.37h6.14c.31,0,.37.12.56.37,5.39,9.11,17.3,29.26,19.78,34.1h.06c-.12-1.67-.19-4.03-.19-9.42v-24.61c0-.31.12-.43.43-.43h4.09c.31,0,.43.19.43.5v40.05c0,.31-.12.43-.56.43h-5.52c-.37,0-.56-.06-.68-.37-2.79-5.21-18.23-30.81-20.21-35.4h-.06c.12,2.42.25,5.46.25,10.91v24.43c0,.31-.12.43-.37.43h-4.09Z"/>
        <path d="M777.65,1012.77c0,.31-.06.56-.31.62-2.05.87-4.9,1.18-8.37,1.18-10.35,0-20.95-6.01-20.95-21.2,0-12.4,8.55-21.02,21.76-21.02,4.15,0,6.57.43,7.94,1.12.19.06.31.25.31.5v4.15c0,.37-.25.37-.43.31-1.74-.93-4.53-1.43-7.94-1.43-9.73,0-16.37,6.32-16.37,16.24,0,12.96,9.73,16.62,16.24,16.62,3.16,0,5.46-.25,7.75-1.12.25-.06.37-.06.37.25v3.78Z"/>
        <path d="M810.2,1013.58c-.06.31-.19.37-.43.37h-23.56c-.43,0-.5-.12-.5-.5v-40.05c0-.31.12-.43.43-.43h22.63c.31,0,.37.06.43.37l.5,3.91c.06.25,0,.43-.31.43h-18.54v12.96h16.74c.25,0,.37.12.37.37v3.97c0,.31-.19.37-.37.37h-16.74v13.89h19.71c.31,0,.37.12.31.37l-.68,3.97Z"/>
      </g>
      <g>
        <path d="M113.47,1058.85c.06,13.33-7.81,21.33-18.54,21.33-11.84,0-18.78-8.99-18.78-21.2s7.87-21.02,18.66-21.02c11.66,0,18.6,9.18,18.66,20.89ZM95.06,1075.53c8.25,0,13.14-6.7,13.08-16.55,0-9.61-5.27-16.37-13.39-16.37-7.44,0-13.33,5.77-13.33,16.37,0,8.99,4.71,16.55,13.64,16.55Z"/>
        <path d="M122.46,1079.56c-.25,0-.43-.06-.43-.43v-40.17c0-.25.06-.37.37-.37h6.14c.31,0,.37.12.56.37,5.39,9.11,17.3,29.26,19.78,34.1h.06c-.12-1.67-.19-4.03-.19-9.42v-24.61c0-.31.12-.43.43-.43h4.09c.31,0,.43.19.43.5v40.05c0,.31-.12.43-.56.43h-5.52c-.37,0-.56-.06-.68-.37-2.79-5.21-18.23-30.81-20.21-35.4h-.06c.12,2.42.25,5.46.25,10.91v24.43c0,.31-.12.43-.37.43h-4.09Z"/>
      </g>
      <g>
        <path d="M177.92,1077.82c-.31-.12-.37-.37-.37-.74v-4.46c0-.25.19-.37.43-.19,3.22,2.17,7.19,3.04,10.6,3.04,5.95,0,8.68-2.67,8.68-6.39,0-2.91-1.67-5.08-7.32-7.62l-2.73-1.12c-7.69-3.29-9.42-7.19-9.42-11.35,0-6.45,4.96-11.04,13.33-11.04,3.91,0,7.25.62,9.18,1.67.25.12.31.31.31.62v4.15c0,.25-.19.43-.5.25-2.17-1.36-5.58-2.05-9.11-2.05-6.45,0-8.18,3.35-8.18,5.95,0,2.79,1.61,4.9,7.13,7.25l2.67,1.12c7.63,3.22,9.86,7.07,9.86,11.72,0,6.7-5.02,11.53-14.07,11.53-4.28,0-8.06-.93-10.48-2.36Z"/>
        <path d="M247.73,1058.85c.06,13.33-7.81,21.33-18.54,21.33-11.84,0-18.78-8.99-18.78-21.2s7.87-21.02,18.66-21.02c11.66,0,18.6,9.18,18.66,20.89ZM229.32,1075.53c8.25,0,13.14-6.7,13.08-16.55,0-9.61-5.27-16.37-13.39-16.37-7.44,0-13.33,5.77-13.33,16.37,0,8.99,4.71,16.55,13.64,16.55Z"/>
        <path d="M285.99,1078.38c0,.31-.06.56-.31.62-2.05.87-4.9,1.18-8.37,1.18-10.35,0-20.95-6.01-20.95-21.2,0-12.4,8.56-21.02,21.76-21.02,4.15,0,6.57.43,7.94,1.12.19.06.31.25.31.5v4.15c0,.37-.25.37-.43.31-1.74-.93-4.53-1.43-7.94-1.43-9.73,0-16.37,6.32-16.37,16.24,0,12.96,9.73,16.62,16.24,16.62,3.16,0,5.46-.25,7.75-1.12.25-.06.37-.06.37.25v3.78Z"/>
        <path d="M301.18,1079.13c0,.31-.06.43-.37.43h-4.34c-.31,0-.43-.12-.43-.43v-40.11c0-.31.12-.43.37-.43h4.4c.25,0,.37.12.37.37v40.17Z"/>
        <path d="M319.28,1066.67l-4.46,12.52c-.06.25-.19.37-.5.37h-4.22c-.31,0-.43-.19-.37-.5l13.52-37.63c.19-.5.37-.93.43-2.54,0-.19.12-.31.31-.31h6.08c.25,0,.31.06.37.31l14.57,40.24c.12.25.06.43-.25.43h-4.71c-.25,0-.37-.12-.5-.31l-4.53-12.59h-15.75ZM333.6,1061.89c-1.36-4.03-5.27-14.88-6.45-19.09h-.06c-1.05,3.97-4.03,12.28-6.39,19.09h12.9Z"/>
        <path d="M354.06,1079.56c-.37,0-.5-.19-.5-.5v-40.05c0-.25.06-.43.37-.43h4.46c.25,0,.31.12.31.37v35.9h19.22c.31,0,.37.19.31.37l-.74,3.97c-.06.31-.25.37-.5.37h-22.94Z"/>
      </g>
      <g>
        <path d="M428.88,1078.62c0,.31-.06.56-.31.62-2.05.87-4.9,1.18-8.37,1.18-10.35,0-20.96-6.01-20.96-21.2,0-12.4,8.56-21.02,21.76-21.02,4.15,0,6.57.43,7.94,1.12.19.06.31.25.31.5v4.15c0,.37-.25.37-.43.31-1.74-.93-4.53-1.43-7.94-1.43-9.73,0-16.37,6.32-16.37,16.24,0,12.96,9.73,16.62,16.24,16.62,3.16,0,5.46-.25,7.75-1.12.25-.06.37-.06.37.25v3.78Z"/>
        <path d="M471.97,1059.09c.06,13.33-7.81,21.33-18.54,21.33-11.84,0-18.79-8.99-18.79-21.2s7.87-21.02,18.66-21.02c11.66,0,18.6,9.18,18.66,20.89ZM453.56,1075.77c8.25,0,13.14-6.7,13.08-16.55,0-9.61-5.27-16.37-13.39-16.37-7.44,0-13.33,5.77-13.33,16.37,0,8.99,4.71,16.55,13.64,16.55Z"/>
        <path d="M483.44,1038.82h6.88c.31,0,.37.12.5.37,2.11,6.39,9.61,28.64,10.91,34.04h.06c1.43-5.15,9.67-27.71,11.78-34.04.06-.25.12-.37.43-.37h6.7c.31,0,.31.06.37.31l2.11,40.3c.06.25-.12.37-.37.37h-4.59c-.31,0-.43-.06-.43-.31-.56-14.26-1.18-33.29-1.18-37.01h-.06c-1.49,5.58-9.8,29.01-12.4,36.95-.06.31-.25.37-.5.37h-4.34c-.37,0-.5-.06-.56-.37-3.29-10.29-9.8-30.75-11.47-37.01h-.12c-.06,5.39-1.18,23.99-1.86,37.01,0,.31-.12.37-.43.37h-4.22c-.31,0-.37-.06-.37-.37l2.73-40.24c.06-.37.19-.37.43-.37Z"/>
        <path d="M533.91,1039.32c0-.25.06-.43.31-.43,1.98-.06,6.08-.19,10.23-.19,10.97,0,15.81,6.2,15.81,13.14,0,9.42-7.44,13.83-16.43,13.83-2.6,0-3.41-.06-4.77-.06v13.76c0,.31-.06.43-.37.43h-4.4c-.25,0-.37-.12-.37-.37v-40.11ZM539.05,1060.95c1.05.06,2.11.06,4.71.06,6.08,0,11.34-2.29,11.34-9.05,0-5.64-4.34-8.68-10.6-8.68-2.54,0-4.46.06-5.46.12v17.54Z"/>
        <path d="M574.33,1064.67c0,6.82,3.72,11.1,10.48,11.1,5.21,0,10.17-2.29,10.17-11.22v-25.29c0-.31.12-.43.37-.43h4.4c.31,0,.43.12.43.43v25.36c0,11.41-6.76,15.81-15.56,15.81-9.36,0-15.44-5.08-15.44-15.44v-25.73c0-.25.06-.43.37-.43h4.4c.25,0,.37.12.37.37v25.48Z"/>
        <path d="M619.84,1043.53h-13.27c-.25,0-.37-.12-.31-.43l.62-3.91c.06-.25.19-.37.5-.37h30.32c.31,0,.43.12.5.43l.43,3.84c.06.31-.06.43-.31.43h-13.27v35.77c0,.37-.12.5-.43.5h-4.28c-.31,0-.5-.12-.5-.43v-35.83Z"/>
        <path d="M650.15,1079.37c0,.31-.06.43-.37.43h-4.34c-.31,0-.43-.12-.43-.43v-40.11c0-.31.12-.43.37-.43h4.4c.25,0,.37.12.37.37v40.17Z"/>
        <path d="M662.37,1079.8c-.25,0-.43-.06-.43-.43v-40.17c0-.25.06-.37.37-.37h6.14c.31,0,.37.12.56.37,5.39,9.11,17.3,29.26,19.78,34.1h.06c-.12-1.67-.19-4.03-.19-9.42v-24.61c0-.31.12-.43.43-.43h4.09c.31,0,.43.19.43.5v40.05c0,.31-.12.43-.56.43h-5.52c-.37,0-.56-.06-.68-.37-2.79-5.21-18.23-30.81-20.21-35.4h-.06c.12,2.42.25,5.46.25,10.91v24.43c0,.31-.12.43-.37.43h-4.09Z"/>
        <path d="M722.13,1062.38c-.31-.06-.43-.12-.43-.43v-3.78c0-.25.19-.31.37-.31h13.45c.37,0,.43.12.43.37v19.65c.06.25-.06.37-.31.5-4.03,1.61-8.12,2.05-11.53,2.05-14.07,0-21.51-9.11-21.51-20.89,0-13.02,9.11-21.33,22.32-21.33,4.22,0,7.63.5,9.86,1.55.25.12.31.31.31.62v4.09c0,.31-.19.37-.37.25-2.79-1.43-6.2-1.8-9.67-1.8-10.54-.12-17.11,6.14-17.11,16.43,0,9.11,5.64,16.49,16.43,16.49,2.79,0,4.77-.31,6.39-.99v-12.34l-8.62-.12Z"/>
      </g>
    </g>
  </g>
</svg>